<svg id="Layer_1" data-name="Layer 1" xmlns="http://www.w3.org/2000/svg" viewBox="0 0 218.12 161.7"><defs><style>.cls-1{fill:#fff;}</style></defs><title>mozilla-clubs_wordmark</title><path class="cls-1" d="M117.45,42.44c-6.93,0-11.33,6.28-11.57,11.65v5.46A10.92,10.92,0,0,0,117,70.47c8,0,11.33-6.93,11.33-14.42C128.37,47,123.56,42.44,117.45,42.44Z"/><path class="cls-1" d="M0,0V90.67H171V0ZM20.52,75.36c-10,0-16.46-6.76-16.46-18.42,0-10,5.71-19.4,17-19.4,4.81,0,8.72,1,12.39,3.75L34.78,50l-4.73.57-1.39-6.11a13.89,13.89,0,0,0-7.74-2c-7.74,0-10.84,6.36-10.84,14.18,0,8.72,3.91,13.85,11.08,13.85,5.62,0,8.72-3.26,9.78-9.21l4.89,1.06C34.86,68.68,30.54,75.36,20.52,75.36Zm34.4-.82H36.5V69.9h6.36V23.12H36.42V18.48H48.56V69.9h6.36Zm41.26,0H84V67.7a13.78,13.78,0,0,1-12.63,7.66c-7.09,0-12.55-4.16-12.55-13.85V42.92H52.42V38.28H64.48v21.6c0,7.82,3.59,10.59,8.72,10.59,6.19,0,10.59-5.7,10.76-10.92V42.92H76.38V38.28H89.66V69.9h6.52Zm22.08.82c-5.71,0-10.43-2.45-12.71-6.85l-.81,6H99A71.47,71.47,0,0,0,100.17,64V23.12H93.89V18.48h12v27.3c2.2-4.48,6-8.23,13-8.23,9,0,15.57,6.44,15.57,17.93C134.4,65.09,129.75,75.36,118.26,75.36Zm32.63,0c-5.13,0-10.68-1.55-13.77-3.59l1.14-8.23,4.56.49-.24,4.81a18.34,18.34,0,0,0,8.07,1.79c5.05,0,9.78-2,9.78-6.11,0-9.94-22.74-2.36-22.74-16.46,0-7.66,6.85-10.51,13.45-10.51a25.73,25.73,0,0,1,12.63,3.34l.9,8.48-4.73.57-.9-5.87a15.35,15.35,0,0,0-7.42-1.79c-4.56,0-7.82,1.63-7.82,5.38,0,9.45,22.49,2,22.49,16.38C166.3,71.12,159.62,75.36,150.89,75.36Z"/><rect y="99.33" width="218.12" height="62.37"/><path class="cls-1" d="M208.34,144.11a4.12,4.12,0,0,1-1.15.18c-1.27,0-1.88-.54-1.88-2.12V130.31c0-6.23-5-9.26-10.83-9.26-4.48,0-6.9.54-11.68,2.48l-1.06,6.28,6.23.67.88-3.07a8.47,8.47,0,0,1,4.17-.79c4.42,0,4.48,3.33,4.48,6.11v.91a35.69,35.69,0,0,0-4.48-.24c-6.23,0-12.7,1.57-12.7,8.29,0,5.69,4.48,7.81,8.41,7.81a9.88,9.88,0,0,0,8.77-5.45c.36,3.33,2.36,5.45,6,5.45a10.54,10.54,0,0,0,4.9-1.27Zm-16.76-.18a2.85,2.85,0,0,1-3.21-3.15c0-3,2.42-3.75,5.2-3.75a28.79,28.79,0,0,1,3.93.36C197.32,141.93,194.36,143.93,191.58,143.93ZM181.1,107.26l-11.8,41.63h-7.68l11.8-41.63Zm-15.85,0-11.8,41.63h-7.68l11.8-41.63ZM132.49,121.6h8.17v9.8h-8.17Zm0,17.49h8.17v9.8h-8.17Zm-11.89-.36,6.17.6-1.69,9.56H101.24l-.79-4.11,15-17.24h-8.53l-1.21,4.24-5.63-.61,1-9.56h24l.61,4.11L110.5,143h8.83ZM81.5,121.06c-9.8,0-14.64,6.59-14.64,14.58,0,8.71,5.81,13.85,14.22,13.85,8.71,0,15-5.51,15-14.22C96.08,127.65,91.3,121.06,81.5,121.06Zm-.18,22.45c-4.24,0-6.41-3.63-6.41-8.35,0-5.14,2.48-8.11,6.47-8.11,3.69,0,6.65,2.48,6.65,8C88,140.24,85.37,143.5,81.32,143.5ZM59.83,143h3.63v5.93H52V133.52c0-4.72-1.57-6.53-4.66-6.53-3.75,0-5.26,2.66-5.26,6.47V143h3.63v5.93H34.3V133.52c0-4.72-1.57-6.53-4.66-6.53-3.75,0-5.26,2.66-5.26,6.47V143h5.2v5.93H12.94V143h3.63V127.53H12.94V121.6H24.38v4.11a9,9,0,0,1,8.29-4.66c3.93,0,7.56,1.88,8.89,5.87a9.15,9.15,0,0,1,8.89-5.87c4.9,0,9.38,3,9.38,9.44Z"/></svg>