<?xml version="1.0" encoding="UTF-8" standalone="no"?>
<svg width="403px" height="69px" viewBox="0 0 403 69" version="1.1" xmlns="http://www.w3.org/2000/svg" xmlns:xlink="http://www.w3.org/1999/xlink" xmlns:sketch="http://www.bohemiancoding.com/sketch/ns">
    <!-- Generator: Sketch 3.4.2 (15857) - http://www.bohemiancoding.com/sketch -->
    <title>mozilla-clubs-logo</title>
    <desc>Created with Sketch.</desc>
    <defs>
        <path id="path-1" d="M0,5.0463 L391.630839,5.0463 L391.630839,63 L0,63 L0,5.0463 Z"></path>
    </defs>
    <g id="Page-1" stroke="none" stroke-width="1" fill="none" fill-rule="evenodd" sketch:type="MSPage">
        <g id="mozilla-clubs-logo" sketch:type="MSArtboardGroup">
            <path d="M0,24.16617 L9.19746774,21.67137 C9.88204839,22.72977 10.1799677,23.63697 10.566629,25.60257 C13.2288871,23.03217 16.4996613,21.67137 20.0683548,21.67137 C23.2630645,21.67137 25.9253226,22.72977 27.9727258,24.84657 C28.5051774,25.36947 28.733371,25.67817 29.4940161,26.73657 C33.0690484,23.10777 36.2637581,21.67137 40.523371,21.67137 C43.5596129,21.67137 46.4500645,22.57857 48.1995484,24.09057 C50.3990806,25.98057 51.09,28.24227 51.09,33.53427 L51.09,61.04007 L41.2016129,61.04007 L41.2016129,35.49987 C41.2016129,30.88827 40.6691613,29.98107 38.0069032,29.98107 C36.1052903,29.98107 33.449371,31.26627 31.2435,33.23187 L31.2435,61.04007 L21.5896452,61.04007 L21.5896452,35.87787 C21.5896452,31.03947 20.9050645,29.90547 18.0906774,29.90547 C16.1954032,29.90547 13.602871,30.88827 11.4033387,32.85387 L11.4033387,61.04007 L1.44522581,61.04007 L1.44522581,34.06347 C1.44522581,28.47537 1.06490323,26.05617 0,24.16617" id="Fill-1" fill="#4E4F53" sketch:type="MSShapeGroup"></path>
            <path d="M72.7030984,29.07576 C70.2690339,29.07576 68.2976952,30.58776 67.4609855,33.00696 C66.7700661,35.04186 66.3960823,37.76346 66.3960823,41.61906 C66.3960823,46.07316 66.8461306,49.39956 67.689179,51.36516 C68.6019532,53.48196 70.87755,54.54036 72.8552274,54.54036 C77.2669694,54.54036 79.1685823,50.60916 79.1685823,41.46786 C79.1685823,36.25776 78.4776629,32.85576 77.1085016,31.11696 C76.1260016,29.83176 74.5286468,29.07576 72.7030984,29.07576 M72.5573081,21.59766 C78.103679,21.59766 82.4330177,23.48136 85.7798565,27.41256 C88.8985016,31.04136 90.2676629,35.26866 90.2676629,41.54346 C90.2676629,48.18996 88.7400339,52.72596 85.3995339,56.50596 C82.4330177,59.83236 78.5600661,61.86726 72.5573081,61.86726 C61.9843403,61.86726 55.0688081,54.01116 55.0688081,41.84586 C55.0688081,29.68056 62.0604048,21.59766 72.5573081,21.59766" id="Fill-3" fill="#4E4F53" sketch:type="MSShapeGroup"></path>
            <path d="M93.0256355,22.5792 L121.917474,22.5792 L121.917474,29.5281 L104.733232,54.0099 L122.602055,54.0099 L120.16799,61.0344 L91.5106839,61.0344 L91.5106839,54.7596 L109.823216,29.6793 L93.0256355,29.6793 L93.0256355,22.5792 Z" id="Fill-5" fill="#4E4F53" sketch:type="MSShapeGroup"></path>
            <path d="M126.260124,23.03154 L136.446431,21.44394 L136.446431,61.03944 L126.260124,61.03944 L126.260124,23.03154 Z M131.508576,5.42934 C134.92514,5.42934 137.669802,8.22024 137.669802,11.69784 C137.669802,15.17544 134.849076,17.96634 131.356447,17.96634 C127.939882,17.96634 125.119156,15.17544 125.119156,11.69784 C125.119156,8.22024 128.009608,5.42934 131.508576,5.42934 L131.508576,5.42934 Z" id="Fill-7" fill="#4E4F53" sketch:type="MSShapeGroup"></path>
            <path d="M152.426318,5.12505 C152.80664,7.24185 152.958769,9.73035 152.958769,15.17355 L152.958769,45.32535 C152.958769,51.97185 153.034834,52.87905 153.637011,53.93745 C154.023673,54.61155 154.860382,54.99585 155.697092,54.99585 C156.077415,54.99585 156.299269,54.99585 156.831721,54.84465 L158.587544,60.89265 C156.831721,61.56675 154.701915,61.94475 152.502382,61.94475 C148.166705,61.94475 144.667737,59.90355 143.457044,56.65905 C142.696398,54.68715 142.537931,53.48385 142.537931,47.97135 L142.537931,19.10475 C142.537931,14.03955 142.39214,10.93995 142.005479,7.46865 L152.426318,5.12505 Z" id="Fill-9" fill="#4E4F53" sketch:type="MSShapeGroup"></path>
            <path d="M169.845092,5.12505 C170.225415,7.24185 170.377544,9.73035 170.377544,15.17355 L170.377544,45.32535 C170.377544,51.97185 170.453608,52.87905 171.055785,53.93745 C171.442447,54.61155 172.279156,54.99585 173.115866,54.99585 C173.496189,54.99585 173.718044,54.99585 174.250495,54.84465 L176.006318,60.89265 C174.250495,61.56675 172.120689,61.94475 169.921156,61.94475 C165.585479,61.94475 162.086511,59.90355 160.875818,56.65905 C160.115173,54.68715 159.956705,53.48385 159.956705,47.97135 L159.956705,19.10475 C159.956705,14.03955 159.810915,10.93995 159.424253,7.46865 L169.845092,5.12505 Z" id="Fill-11" fill="#4E4F53" sketch:type="MSShapeGroup"></path>
            <path d="M198.969561,44.1126 L198.513174,44.1126 C191.445513,44.1126 189.011448,45.3978 189.011448,50.0094 C189.011448,53.0271 190.913061,55.0683 193.499255,55.0683 C195.400868,55.0683 197.296142,54.0855 198.817432,52.4223 L198.969561,44.1126 Z M178.977271,26.9577 C181.481061,25.3701 182.545965,24.8472 185.284287,23.7888 C189.081174,22.2012 192.358287,21.5208 195.933319,21.5208 C202.468529,21.5208 206.956335,23.94 208.471287,28.2429 C209.003739,29.8305 209.155868,31.0401 209.155868,35.1981 L208.927674,48.1887 L208.927674,48.8691 C208.927674,53.0271 209.612255,54.6147 212.572432,56.8071 L207.17819,63 C204.826529,62.0235 202.696723,60.2784 201.707884,58.3191 C200.262658,59.6799 200.110529,59.8311 199.349884,60.3603 C197.448271,61.7211 194.709948,62.4708 191.521577,62.4708 C182.850223,62.4708 178.140561,58.0923 178.140561,50.3811 C178.140561,41.3154 184.447577,37.0881 196.839755,37.0881 C197.6004,37.0881 198.056787,37.0881 199.12169,37.1574 L199.12169,35.5761 C199.12169,31.2669 198.291319,29.8305 194.564158,29.8305 C191.293384,29.8305 187.490158,31.4181 183.30661,34.2153 L178.977271,26.9577 Z" id="Fill-13" fill="#4E4F53" sketch:type="MSShapeGroup"></path>
            <path d="M264.603731,25.67691 L259.665876,32.32341 C257.605795,30.43341 255.406263,29.30571 253.50465,29.30571 C248.940779,29.30571 246.893376,33.23061 246.893376,42.29631 C246.893376,47.36151 247.501892,50.37921 248.871053,52.04241 C249.935956,53.40951 251.679102,54.23481 253.428585,54.23481 C255.786585,54.23481 257.916392,53.25201 260.426521,51.06591 L261.035037,50.53671 L265.668634,56.65401 C264.153682,58.17231 263.462763,58.70151 262.093602,59.52681 C259.361618,61.11441 256.319037,61.93971 252.591876,61.93971 C241.873118,61.93971 235.642166,54.54351 235.642166,41.99391 C235.642166,33.07941 239.065069,27.18891 243.622602,24.08931 C246.208795,22.35051 250.005682,21.21651 253.276456,21.21651 C255.86265,21.21651 258.600973,21.89691 260.800505,22.95531 C262.252069,23.71131 262.930311,24.24051 264.603731,25.67691" id="Fill-15" fill="#4E4F53" sketch:type="MSShapeGroup"></path>
            <path d="M278.612279,5.12505 C278.992602,7.24185 279.144731,9.73035 279.144731,15.17355 L279.144731,45.32535 C279.144731,51.97185 279.220795,52.87905 279.829311,53.93745 C280.209634,54.61155 281.046344,54.99585 281.883053,54.99585 C282.257037,54.99585 282.485231,54.99585 283.017682,54.84465 L284.773505,60.89265 C283.017682,61.56675 280.887876,61.94475 278.688344,61.94475 C274.352666,61.94475 270.853698,59.90355 269.643005,56.65905 C268.88236,54.68715 268.723892,53.48385 268.723892,47.97135 L268.723892,19.10475 C268.723892,14.03955 268.578102,10.93995 268.19144,7.46865 L278.612279,5.12505 Z" id="Fill-17" fill="#4E4F53" sketch:type="MSShapeGroup"></path>
            <path d="M286.529327,23.25897 L296.563505,21.36897 L296.563505,46.22877 C296.563505,49.70637 296.791698,51.51447 297.400215,52.57287 C297.932666,53.63127 299.453956,54.38727 300.968908,54.38727 C303.485376,54.38727 306.521618,52.57287 307.282263,50.68917 L307.282263,23.48577 L317.018521,21.44457 L317.018521,50.98527 C317.018521,53.55567 317.848892,56.20167 319.370182,58.01607 L312.150392,62.09847 C310.857295,61.19127 309.792392,59.90607 309.107811,58.31847 C306.597682,60.73767 302.952924,62.02287 298.839102,62.02287 C293.368795,62.02287 288.659134,59.45247 287.366037,55.74807 C286.757521,54.00927 286.529327,51.96807 286.529327,48.04317 L286.529327,23.25897 Z" id="Fill-19" fill="#4E4F53" sketch:type="MSShapeGroup"></path>
            <mask id="mask-2" sketch:name="Clip 22" fill="white">
                <use xlink:href="#path-1"></use>
            </mask>
            <g id="Clip-22"></g>
            <path d="M334.5216,32.85324 L334.5216,50.68854 C335.890761,51.89184 337.488116,53.18334 340.2201,53.18334 C342.730229,53.18334 344.327584,52.19424 345.164294,50.15934 C346.070729,48.04254 346.298923,46.00134 346.298923,41.24484 C346.298923,37.76724 346.229197,36.33084 345.842535,34.66764 C345.088229,31.34124 342.958423,29.75364 340.296165,29.75364 C337.633906,29.75364 335.808358,31.41684 334.5216,32.85324 L334.5216,32.85324 Z M333.989148,5.04504 C334.293406,7.69104 334.369471,9.27864 334.369471,11.92464 L334.369471,21.06594 C334.369471,22.19994 334.293406,23.86314 334.134939,24.46794 C336.112616,22.35114 338.857277,21.36834 342.425971,21.36834 C351.927697,21.36834 357.860729,28.92204 357.860729,41.01174 C357.860729,48.86784 355.3506,54.91584 350.6346,58.77144 C347.972342,60.88824 345.310084,61.79544 342.121713,61.79544 C338.324826,61.79544 335.662568,60.65514 333.456697,58.24224 C333.1461,59.59674 333.070035,59.98104 332.391794,61.03944 L323.27039,61.03944 C324.031035,59.30064 324.259229,58.17294 324.259229,52.80534 L324.259229,16.98354 C324.259229,12.22704 324.100761,9.65664 323.56831,7.46424 L333.989148,5.04504 Z" id="Fill-21" fill="#4E4F53" sketch:type="MSShapeGroup" mask="url(#mask-2)"></path>
            <path d="M390.034752,24.92028 L386.694252,31.72428 C382.808623,29.75868 380.000574,28.92708 377.110123,28.92708 C374.143606,28.92708 372.172268,30.43278 372.172268,32.70078 C372.172268,34.66638 373.465365,35.72478 377.034058,36.63198 L381.743719,37.84158 C386.535784,39.05118 388.133139,40.48758 389.5023,42.22638 C390.947526,44.03448 391.632106,46.22688 391.632106,48.79728 C391.632106,56.80458 384.938429,62.24148 374.980316,62.24148 C370.19459,62.24148 364.946139,60.73578 359.247639,57.78738 L362.898735,50.38488 C366.011042,52.27488 371.411623,54.76338 375.817026,54.76338 C378.707477,54.76338 380.989413,52.87968 380.989413,50.38488 C380.989413,47.73888 379.081461,46.38438 374.980316,45.62208 L370.416445,44.79678 C367.83659,44.34318 364.641881,42.52248 363.272719,40.86558 C361.909897,39.20238 361.073187,36.40518 361.073187,33.91038 C361.073187,26.35668 367.075945,21.29148 376.127623,21.29148 C382.358574,21.29148 386.466058,23.18148 390.034752,24.92028" id="Fill-24" fill="#4E4F53" sketch:type="MSShapeGroup" mask="url(#mask-2)"></path>
        </g>
    </g>
</svg>