<?xml version="1.0" encoding="utf-8"?>
<!-- Generator: Adobe Illustrator 17.0.0, SVG Export Plug-In . SVG Version: 6.00 Build 0)  -->
<!DOCTYPE svg PUBLIC "-//W3C//DTD SVG 1.1//EN" "http://www.w3.org/Graphics/SVG/1.1/DTD/svg11.dtd">
<svg version="1.1" id="Layer_1" xmlns="http://www.w3.org/2000/svg" xmlns:xlink="http://www.w3.org/1999/xlink" x="0px" y="0px"
	 width="792px" height="612px" viewBox="0 0 792 612" enable-background="new 0 0 792 612" xml:space="preserve">
<title>mozilla-clubs_wordmark</title>
<path fill="#FFFFFF" d="M426.464,166.532c-25.163,0-41.14,22.803-42.011,42.301v19.825c-0.004,21.899,17.746,39.654,39.644,39.658
	c0.244,0,0.489-0.002,0.733-0.007c29.048,0,41.14-25.163,41.14-52.359C466.115,183.09,448.65,166.532,426.464,166.532z"/>
<path fill="#FFFFFF" d="M0,12.431v329.225h620.906V12.431H0z M74.509,286.066c-36.31,0-59.767-24.546-59.767-66.884
	c0-36.31,20.733-70.442,61.727-70.442c17.465,0,31.663,3.631,44.988,13.616l4.829,31.626l-17.175,2.07l-5.047-22.186
	c-8.454-5.122-18.227-7.648-28.104-7.262c-28.104,0-39.36,23.093-39.36,51.488c0,31.663,14.197,50.29,40.232,50.29
	c20.406,0,31.663-11.837,35.511-33.442l17.756,3.849C126.578,261.81,110.892,286.066,74.509,286.066z M199.416,283.088h-66.884
	V266.24h23.093V96.381h-23.384V79.533h44.081V266.24h23.093V283.088z M349.232,283.088h-44.226v-24.836
	c-8.607,17.373-26.476,28.211-45.86,27.814c-25.744,0-45.569-15.105-45.569-50.29v-67.501h-23.239v-16.848h43.79v78.43
	c0,28.395,13.035,38.453,31.663,38.453c22.476,0,38.453-20.697,39.07-39.651v-60.384h-27.523v-16.848h48.22V266.24h23.674V283.088z
	 M429.405,286.066c-20.733,0-37.872-8.896-46.15-24.873l-2.941,21.786h-20.842c2.357-12.598,3.777-25.354,4.248-38.162V96.381
	h-22.803V79.533h43.572v99.127c7.988-16.267,21.786-29.883,47.203-29.883c32.679,0,56.535,23.384,56.535,65.104
	C488.01,248.775,471.126,286.066,429.405,286.066z M547.886,286.066c-18.627,0-38.779-5.628-49.999-13.035l4.139-29.883
	l16.557,1.779l-0.871,17.465c9.146,4.368,19.168,6.591,29.302,6.5c18.337,0,35.511-7.262,35.511-22.186
	c0-36.092-82.57-8.569-82.57-59.767c0-27.814,24.873-38.162,48.837-38.162c16.075,0.03,31.871,4.207,45.86,12.128l3.268,30.791
	l-17.175,2.07l-3.268-21.314c-8.29-4.4-17.557-6.636-26.942-6.5c-16.557,0-28.395,5.919-28.395,19.535
	c0,34.313,81.662,7.262,81.662,59.476C603.84,270.67,579.585,286.066,547.886,286.066z"/>
<rect y="373.101" width="792" height="226.467"/>
<path fill="#FFFFFF" d="M756.489,535.699c-1.354,0.414-2.76,0.634-4.176,0.654c-4.611,0-6.826-1.961-6.826-7.698v-43.064
	c0-22.621-18.155-33.623-39.324-33.623c-16.267,0-25.054,1.961-42.41,9.005l-3.849,22.803l22.621,2.433l3.195-11.147
	c4.722-2.226,9.933-3.213,15.141-2.868c16.049,0,16.267,12.091,16.267,22.186v3.304c-5.399-0.631-10.832-0.922-16.267-0.871
	c-22.621,0-46.114,5.701-46.114,30.101c0,20.661,16.267,28.358,30.537,28.358c13.491-0.084,25.795-7.73,31.844-19.789
	c1.307,12.091,8.569,19.789,21.786,19.789c6.217-0.069,12.324-1.652,17.792-4.611L756.489,535.699z M695.633,535.045
	c-5.665,0.759-10.872-3.217-11.632-8.882c-0.114-0.848-0.122-1.706-0.024-2.556c0-10.893,8.787-13.616,18.881-13.616
	c4.781,0.109,9.549,0.546,14.27,1.307C716.475,527.783,705.727,535.045,695.633,535.045L695.633,535.045z M657.579,401.895
	l-42.846,151.16h-27.886l42.846-151.16L657.579,401.895z M600.028,401.895l-42.846,151.16h-27.886l42.846-151.16L600.028,401.895z
	 M481.075,453.964h29.665v35.584h-29.665V453.964z M481.075,517.471h29.665v35.584h-29.665V517.471z M437.902,516.164l22.403,2.179
	l-6.136,34.713h-86.564l-2.868-14.924l54.465-62.599H388.23l-4.394,15.396l-20.443-2.215l3.631-34.713h87.145l2.215,14.924
	l-55.155,62.744h32.062L437.902,516.164z M295.929,452.004c-35.584,0-53.158,23.928-53.158,52.94
	c0,31.626,21.096,50.29,51.633,50.29c31.626,0,54.465-20.007,54.465-51.633C348.869,475.932,331.513,452.004,295.929,452.004z
	 M295.275,533.52C279.88,533.52,272,520.34,272,503.201c0-18.664,9.005-29.448,23.493-29.448c13.398,0,24.146,9.005,24.146,29.048
	c-0.109,18.845-9.659,30.682-24.364,30.682V533.52z M217.244,531.668h13.181V553.2h-41.612v-55.954
	c0-17.138-5.701-23.711-16.921-23.711c-13.616,0-19.099,9.659-19.099,23.493v34.64h13.181V553.2h-41.43v-55.954
	c0-17.138-5.701-23.711-16.921-23.711c-13.616,0-19.099,9.659-19.099,23.493v34.64h18.881V553.2h-60.42v-21.532h13.181v-56.172
	H46.986v-21.532h41.539v14.924c5.991-10.914,17.663-17.475,30.101-16.921c14.27,0,27.451,6.826,32.28,21.314
	c5.088-13.282,18.067-21.851,32.28-21.314c17.792,0,34.059,10.893,34.059,34.277L217.244,531.668z"/>
</svg>
